<?xml version="1.0" encoding="UTF-8" standalone="no"?><!DOCTYPE svg PUBLIC "-//W3C//DTD SVG 1.1//EN" "http://www.w3.org/Graphics/SVG/1.1/DTD/svg11.dtd"><svg width="100%" height="100%" viewBox="0 0 456 456" version="1.1" xmlns="http://www.w3.org/2000/svg" xmlns:xlink="http://www.w3.org/1999/xlink" xml:space="preserve" xmlns:serif="http://www.serif.com/" style="fill-rule:evenodd;clip-rule:evenodd;stroke-linejoin:round;stroke-miterlimit:2;"><g><path d="M216.022,341.105l3.678,-43.257c-7.899,-4.123 -13.794,-11.827 -15.23,-21.303c-2.392,-15.773 8.473,-30.52 24.246,-32.912c0.611,-0.092 1.22,-0.165 1.826,-0.218c5.902,4.39 10.143,11.016 11.331,18.856c1.643,10.837 -2.971,21.19 -11.136,27.384l22.529,45.804l-37.244,5.646Z" style="fill:url(#_Linear1);"/><path d="M133.017,405.808c39.391,-8.032 93.288,-19.04 127.14,-26.03c46.377,-9.575 41.757,-46.326 41.757,-46.326c-0,0 0.503,-105.958 0.769,-131.813c0.12,-2.788 0.128,-5.433 0.037,-7.943c25.505,-5.784 43.655,-9.964 43.655,-9.964c2.677,-0.92 0.847,-6.624 2.922,-4.045c10.599,13.181 17.725,30.193 17.052,53.815l-0.009,127.786c0.394,31.068 -13.898,47.996 -43.835,52.577l-156.834,38.635c-3.237,0.479 -6.62,0.595 -10.091,0.408c-5.718,-2.355 -22.3,-12.19 -22.563,-47.1Zm142.123,-257.828c-0.261,0.02 -0.476,0.038 -0.582,0.049c-0.265,-0.068 -0.408,-0.096 -0.408,-0.096c0.329,0.014 0.659,0.029 0.99,0.047Z" style="fill:#203291;"/><path d="M274.558,148.029c0.388,-0.04 0.784,-0.072 1.187,-0.096c-0.506,0.038 -1.007,0.078 -1.187,0.096Zm-194.303,269.144c-9.704,-9.878 -11.402,-27.908 -10.794,-49.239l0.008,-127.785c-0.393,-31.069 13.899,-47.996 43.836,-52.577l156.834,-38.635c1.322,-0.445 2.804,-0.743 4.419,-0.908c3.393,0.864 26.808,8.174 28.162,45.667c-37.921,8.6 -92.103,20.744 -127.068,27.963c-46.377,9.575 -41.756,46.325 -41.756,46.325c-0,0 -0.504,105.959 -0.769,131.814c-0.09,2.082 -0.125,4.084 -0.11,6.01c-28.657,5.844 -53.017,8.07 -53.017,8.07c-1.502,0.168 -1.297,1.386 0.255,3.295Zm203.994,-268.847c-1.85,-0.236 -3.689,-0.382 -5.712,-0.447c1.8,0.033 3.713,0.186 5.712,0.447Z" style="fill:#89e3e2;"/><path d="M133.017,405.808c0.263,34.91 16.845,44.745 22.563,47.1c-35.769,-1.924 -84.273,-38.055 -75.58,-39.03c-0,-0 24.36,-2.226 53.017,-8.07Z" style="fill:url(#_Linear2);"/><path d="M202.17,62.494c-6.428,2.759 -13.016,7.421 -19.66,15.211c-14.743,17.286 -15.203,33.74 -16.415,47.176c-0.897,9.956 0.627,46.287 1.476,64.432c-1.633,-25.553 -25.268,-28.194 -19.449,-92.261c2.861,-31.508 14.741,-61.733 38.855,-78.122c13.315,-9.05 25.531,-14.155 51.008,-13.909c17.086,3.342 32.251,10.63 42.864,19.204c27.017,21.825 33.021,38.073 37.228,68.749c0.706,5.149 0.767,4.96 0.939,9.528c-0.037,-0.486 -0.078,-1.018 -0.123,-1.597c-29.13,-60.337 -85.083,-61.33 -116.723,-38.411Zm116.901,41.515c-0.015,-0.18 -0.025,-0.289 -0.025,-0.289c0.006,0.03 0.012,0.059 0.018,0.089l0.007,0.2Z" style="fill:url(#_Linear3);"/><path d="M318.893,100.905c0.949,12.323 0.153,2.815 0.153,2.815c4.454,22.745 -45.464,27.959 -52.347,2.947c-0,0 -0.992,-3.84 -8.831,-25.399c-3.569,-9.818 -9.72,-23.764 -28.217,-24.439c-8.78,-0.321 -17.77,1.073 -27.662,5.771c31.595,-23.103 87.699,-22.188 116.904,38.305Z" style="fill:#203291;"/><path d="M148.122,97.052c-5.837,64.259 17.958,66.724 19.463,92.492c0.218,3.729 1.136,9.05 1.136,9.05c-1.113,13.964 -60.227,14.786 -59.199,-2.554c0,-0 3.099,-74.848 2.571,-82.848c-0.528,-7.999 1.311,-41.643 20.439,-64.321c19.128,-22.678 29.953,-35.38 63.578,-43.295c14.297,-3.365 28.661,-3.14 41.875,-0.555c-25.477,-0.246 -37.693,4.859 -51.008,13.909c-24.114,16.389 -35.994,46.614 -38.855,78.122" style="fill:#203291;"/><path d="M215.473,349.432l-19.947,-5.22l4.419,-51.973c-7.898,-4.123 -13.794,-11.827 -15.23,-21.303c-2.392,-15.773 12.835,-32.764 28.609,-35.155c7.934,-1.203 23.04,5.263 29.013,9.706c-0.607,0.053 -13.01,-1.946 -13.621,-1.854c-15.773,2.392 -26.638,17.139 -24.246,32.912c1.436,9.476 7.331,17.18 15.23,21.303l-4.227,51.584Z" style="fill:#87e5e2;"/><path d="M228.828,243.633c15.07,-1.325 30.501,9.084 32.8,24.247c1.643,10.837 -2.971,21.19 -11.136,27.384l22.528,45.804l-57.58,8.443l0.721,-8.427l37.105,-5.625l-22.529,-45.804c8.165,-6.194 12.779,-16.547 11.136,-27.384c-1.188,-7.84 -7.143,-14.249 -13.045,-18.638Z" style="fill:#203291;"/><path d="M274.558,148.029c0.364,-0.037 2.038,-0.16 2.415,-0.184c4.462,0.053 7.896,0.448 12.108,1.281c11.958,2.365 26.024,7.783 37.534,13.687c8.018,4.623 15.475,10.136 22.039,16.269c0.993,2.09 0.398,3.73 -2.279,4.65c-0,-0 -18.15,4.18 -43.655,9.964c-1.354,-37.493 -24.769,-44.803 -28.162,-45.667Z" style="fill:url(#_Linear4);"/></g><defs><linearGradient id="_Linear1" x1="0" y1="0" x2="1" y2="0" gradientUnits="userSpaceOnUse" gradientTransform="matrix(68.6171,-20.3028,20.3028,68.6171,192.236,281.116)"><stop offset="0" style="stop-color:#203291;stop-opacity:1"/><stop offset="1" style="stop-color:#0de3dd;stop-opacity:1"/></linearGradient><linearGradient id="_Linear2" x1="0" y1="0" x2="1" y2="0" gradientUnits="userSpaceOnUse" gradientTransform="matrix(-120.009,-83.65,83.65,-120.009,170.601,470.118)"><stop offset="0" style="stop-color:#8dd4f0;stop-opacity:1"/><stop offset="1" style="stop-color:#203291;stop-opacity:1"/></linearGradient><linearGradient id="_Linear3" x1="0" y1="0" x2="1" y2="0" gradientUnits="userSpaceOnUse" gradientTransform="matrix(232.207,-111.866,111.866,232.207,81.6875,149.997)"><stop offset="0" style="stop-color:#203291;stop-opacity:1"/><stop offset="0.52" style="stop-color:#12b4c9;stop-opacity:1"/><stop offset="1" style="stop-color:#0de3dd;stop-opacity:1"/></linearGradient><linearGradient id="_Linear4" x1="0" y1="0" x2="1" y2="0" gradientUnits="userSpaceOnUse" gradientTransform="matrix(-106.615,-15.0064,15.0064,-106.615,360.063,172.867)"><stop offset="0" style="stop-color:#8dd4f0;stop-opacity:1"/><stop offset="1" style="stop-color:#203291;stop-opacity:1"/></linearGradient></defs></svg>